<svg width="1400" height="900" xmlns="http://www.w3.org/2000/svg">
  <defs>
    <style>
      .layer-box { fill: #3b82f6; stroke: #2563eb; stroke-width: 3; rx: 12; }
      .component-box { fill: #ffffff; stroke: #cbd5e1; stroke-width: 2; rx: 8; }
      .integration-box { fill: #f0f9ff; stroke: #0ea5e9; stroke-width: 2; rx: 6; }
      .text-title { font-family: 'Segoe UI', Arial, sans-serif; font-size: 20px; font-weight: bold; fill: #ffffff; }
      .text-subtitle { font-family: 'Segoe UI', Arial, sans-serif; font-size: 14px; fill: #ffffff; }
      .text-component { font-family: 'Segoe UI', Arial, sans-serif; font-size: 14px; fill: #1e293b; font-weight: 600; }
      .text-small { font-family: 'Segoe UI', Arial, sans-serif; font-size: 11px; fill: #475569; }
      .text-tiny { font-family: 'Segoe UI', Arial, sans-serif; font-size: 10px; fill: #64748b; }
      .arrow { stroke: #64748b; stroke-width: 2.5; fill: none; marker-end: url(#arrowhead); }
      .data-flow { stroke: #10b981; stroke-width: 2.5; stroke-dasharray: 6,4; fill: none; marker-end: url(#arrowhead-green); }
      .highlight-text { font-family: 'Segoe UI', Arial, sans-serif; font-size: 12px; fill: #0ea5e9; font-weight: 600; }
    </style>
    <marker id="arrowhead" markerWidth="10" markerHeight="10" refX="9" refY="3" orient="auto">
      <polygon points="0 0, 10 3, 0 6" fill="#64748b" />
    </marker>
    <marker id="arrowhead-green" markerWidth="10" markerHeight="10" refX="9" refY="3" orient="auto">
      <polygon points="0 0, 10 3, 0 6" fill="#10b981" />
    </marker>
    <linearGradient id="headerGradient" x1="0%" y1="0%" x2="100%" y2="0%">
      <stop offset="0%" style="stop-color:#3b82f6;stop-opacity:1" />
      <stop offset="100%" style="stop-color:#8b5cf6;stop-opacity:1" />
    </linearGradient>
  </defs>
  
  <!-- Title Banner -->
  <rect x="0" y="0" width="1400" height="60" fill="url(#headerGradient)"/>
  <text x="700" y="35" text-anchor="middle" style="font-family: 'Segoe UI', Arial, sans-serif; font-size: 28px; font-weight: bold; fill: #ffffff;">
    Velocity AI - Workforce Intelligence Platform Architecture
  </text>
  
  <!-- ==================== LAYER 1: EXTERNAL INTEGRATIONS ==================== -->
  <rect x="50" y="80" width="1300" height="140" class="layer-box"/>
  <text x="700" y="108" text-anchor="middle" class="text-title">External Data Sources & Integrations</text>
  
  <!-- Integrations Row -->
  <rect x="80" y="120" width="220" height="85" class="integration-box"/>
  <text x="190" y="140" text-anchor="middle" class="text-component">Project Management</text>
  <text x="190" y="160" text-anchor="middle" class="text-small">• Jira (OAuth + REST API)</text>
  <text x="190" y="175" text-anchor="middle" class="text-small">• Asana (Token Auth)</text>
  <text x="190" y="190" text-anchor="middle" class="text-small">Issues, Sprints, Timelines</text>
  
  <rect x="320" y="120" width="220" height="85" class="integration-box"/>
  <text x="430" y="140" text-anchor="middle" class="text-component">CRM & Sales</text>
  <text x="430" y="160" text-anchor="middle" class="text-small">• HubSpot API</text>
  <text x="430" y="175" text-anchor="middle" class="text-small">Deals, Contacts, Campaigns</text>
  <text x="430" y="190" text-anchor="middle" class="text-small">Tickets, Analytics</text>
  
  <rect x="560" y="120" width="220" height="85" class="integration-box"/>
  <text x="670" y="140" text-anchor="middle" class="text-component">Microsoft 365</text>
  <text x="670" y="160" text-anchor="middle" class="text-small">• Graph API</text>
  <text x="670" y="175" text-anchor="middle" class="text-small">Meetings, Emails, Calendar</text>
  <text x="670" y="190" text-anchor="middle" class="text-small">Teams, OneDrive</text>
  
  <rect x="800" y="120" width="220" height="85" class="integration-box"/>
  <text x="910" y="140" text-anchor="middle" class="text-component">Automation Platform</text>
  <text x="910" y="160" text-anchor="middle" class="text-small">• Zapier API</text>
  <text x="910" y="175" text-anchor="middle" class="text-small">Workflow Runs</text>
  <text x="910" y="190" text-anchor="middle" class="text-small">Automation Metrics</text>
  
  <rect x="1040" y="120" width="280" height="85" class="integration-box"/>
  <text x="1180" y="140" text-anchor="middle" class="text-component">CSV Data Sources</text>
  <text x="1180" y="160" text-anchor="middle" class="text-small">• Local Demo Data (public/data/)</text>
  <text x="1180" y="175" text-anchor="middle" class="text-small">• Projects & Events CSVs</text>
  <text x="1180" y="190" text-anchor="middle" class="text-small">• Analytics Data Files</text>
  
  <!-- ==================== LAYER 2: INGESTION & API ==================== -->
  <rect x="50" y="250" width="1300" height="140" class="layer-box"/>
  <text x="700" y="278" text-anchor="middle" class="text-title">Data Ingestion & API Layer</text>
  
  <rect x="80" y="295" width="580" height="80" class="component-box"/>
  <text x="370" y="315" text-anchor="middle" class="text-component">Express API Server (Node.js + TypeScript)</text>
  <text x="370" y="335" text-anchor="middle" class="text-small">Port 4000 | CORS Enabled | REST Endpoints</text>
  <text x="370" y="350" text-anchor="middle" class="text-tiny">GET /api/issues | /api/projects | /api/asana/issues</text>
  <text x="370" y="365" text-anchor="middle" class="text-tiny">HubSpot Routes | Microsoft365 Routes | Health Check</text>
  
  <rect x="680" y="295" width="280" height="80" class="component-box"/>
  <text x="820" y="315" text-anchor="middle" class="text-component">Authentication Layer</text>
  <text x="820" y="335" text-anchor="middle" class="text-small">OAuth 2.0 Flow</text>
  <text x="820" y="350" text-anchor="middle" class="text-small">API Token Management</text>
  <text x="820" y="365" text-anchor="middle" class="text-small">Session Handling</text>
  
  <rect x="980" y="295" width="340" height="80" class="component-box"/>
  <text x="1150" y="315" text-anchor="middle" class="text-component">CSV Data Loader</text>
  <text x="1150" y="335" text-anchor="middle" class="text-small">csvLoader.ts | csv-parse Library</text>
  <text x="1150" y="350" text-anchor="middle" class="text-small">Load from public/data/*.csv</text>
  <text x="1150" y="365" text-anchor="middle" class="text-small">Parse & Transform to JSON</text>
  
  <!-- ==================== LAYER 3: PROCESSING & NORMALIZATION ==================== -->
  <rect x="50" y="420" width="1300" height="140" class="layer-box"/>
  <text x="700" y="448" text-anchor="middle" class="text-title">Data Processing & Normalization Layer</text>
  
  <rect x="80" y="465" width="380" height="80" class="component-box"/>
  <text x="270" y="485" text-anchor="middle" class="text-component">Data Normalization Engine</text>
  <text x="270" y="505" text-anchor="middle" class="text-small">lib/normalizers/: jira.ts | asana.ts | hubspot.ts</text>
  <text x="270" y="520" text-anchor="middle" class="text-small">microsoft365.ts | zapier.ts</text>
  <text x="270" y="535" text-anchor="middle" class="text-tiny">Transform to Canonical Event Model</text>
  
  <rect x="480" y="465" width="280" height="80" class="component-box"/>
  <text x="620" y="485" text-anchor="middle" class="text-component">Data Service</text>
  <text x="620" y="505" text-anchor="middle" class="text-small">lib/dataService.ts</text>
  <text x="620" y="520" text-anchor="middle" class="text-small">Data Fetching & Caching</text>
  <text x="620" y="535" text-anchor="middle" class="text-small">Aggregation & Filtering</text>
  
  <rect x="780" y="465" width="260" height="80" class="component-box"/>
  <text x="910" y="485" text-anchor="middle" class="text-component">Storage Layer</text>
  <text x="910" y="505" text-anchor="middle" class="text-small">lib/storage.ts</text>
  <text x="910" y="520" text-anchor="middle" class="text-small">Local Storage</text>
  <text x="910" y="535" text-anchor="middle" class="text-small">State Persistence</text>
  
  <rect x="1060" y="465" width="260" height="80" class="component-box"/>
  <text x="1190" y="485" text-anchor="middle" class="text-component">Type System</text>
  <text x="1190" y="505" text-anchor="middle" class="text-small">lib/types.ts</text>
  <text x="1190" y="520" text-anchor="middle" class="text-small">TypeScript Interfaces</text>
  <text x="1190" y="535" text-anchor="middle" class="text-small">Event, Project, Metrics</text>
  
  <!-- ==================== LAYER 4: INTELLIGENCE & ANALYTICS ==================== -->
  <rect x="50" y="590" width="1300" height="120" class="layer-box"/>
  <text x="700" y="618" text-anchor="middle" class="text-title">Intelligence & Analytics Layer</text>
  
  <rect x="80" y="635" width="280" height="60" class="component-box"/>
  <text x="220" y="655" text-anchor="middle" class="text-component">Metrics Engine</text>
  <text x="220" y="670" text-anchor="middle" class="text-small">lib/metrics.ts</text>
  <text x="220" y="685" text-anchor="middle" class="text-tiny">Automation Coverage | Hours Saved | Cost Analysis</text>
  
  <rect x="380" y="635" width="280" height="60" class="component-box"/>
  <text x="520" y="655" text-anchor="middle" class="text-component">ROI Attribution</text>
  <text x="520" y="670" text-anchor="middle" class="text-small">Cost Savings Calculation</text>
  <text x="520" y="685" text-anchor="middle" class="text-tiny">Impact Analysis | Causal Attribution</text>
  
  <rect x="680" y="635" width="300" height="60" class="component-box"/>
  <text x="830" y="655" text-anchor="middle" class="text-component">Redeployment Engine</text>
  <text x="830" y="670" text-anchor="middle" class="text-small">Capacity Forecasting</text>
  <text x="830" y="685" text-anchor="middle" class="text-tiny">Team Allocation | Skill Graph Mapping</text>
  
  <rect x="1000" y="635" width="320" height="60" class="component-box"/>
  <text x="1160" y="655" text-anchor="middle" class="text-component">API Client</text>
  <text x="1160" y="670" text-anchor="middle" class="text-small">lib/api.ts | TanStack Query</text>
  <text x="1160" y="685" text-anchor="middle" class="text-tiny">React Query Hooks | Data Fetching</text>
  
  <!-- ==================== LAYER 5: FRONTEND / UI ==================== -->
  <rect x="50" y="740" width="1300" height="130" class="layer-box"/>
  <text x="700" y="768" text-anchor="middle" class="text-title">Frontend Application Layer (React 18 + TypeScript + Vite)</text>
  
  <!-- Pages Row -->
  <rect x="80" y="785" width="200" height="70" class="component-box"/>
  <text x="180" y="803" text-anchor="middle" class="text-component">Pages/Routes</text>
  <text x="180" y="818" text-anchor="middle" class="text-tiny">Index | Demo | Projects</text>
  <text x="180" y="831" text-anchor="middle" class="text-tiny">Jira/Asana Dashboards</text>
  <text x="180" y="844" text-anchor="middle" class="text-tiny">ROI Calculator | Reports</text>
  
  <rect x="300" y="785" width="200" height="70" class="component-box"/>
  <text x="400" y="803" text-anchor="middle" class="text-component">Analytics Charts</text>
  <text x="400" y="818" text-anchor="middle" class="text-tiny">Chart.js | Recharts</text>
  <text x="400" y="831" text-anchor="middle" class="text-tiny">Gantt | Burndown | ROI</text>
  <text x="400" y="844" text-anchor="middle" class="text-tiny">Time Series | Metrics</text>
  
  <rect x="520" y="785" width="200" height="70" class="component-box"/>
  <text x="620" y="803" text-anchor="middle" class="text-component">UI Components</text>
  <text x="620" y="818" text-anchor="middle" class="text-tiny">shadcn/ui (Radix UI)</text>
  <text x="620" y="831" text-anchor="middle" class="text-tiny">Tailwind CSS</text>
  <text x="620" y="844" text-anchor="middle" class="text-tiny">Lucide Icons</text>
  
  <rect x="740" y="785" width="200" height="70" class="component-box"/>
  <text x="840" y="803" text-anchor="middle" class="text-component">State Management</text>
  <text x="840" y="818" text-anchor="middle" class="text-tiny">TanStack Query</text>
  <text x="840" y="831" text-anchor="middle" class="text-tiny">React Context API</text>
  <text x="840" y="844" text-anchor="middle" class="text-tiny">Toast Notifications</text>
  
  <rect x="960" y="785" width="180" height="70" class="component-box"/>
  <text x="1050" y="803" text-anchor="middle" class="text-component">Forms</text>
  <text x="1050" y="818" text-anchor="middle" class="text-tiny">React Hook Form</text>
  <text x="1050" y="831" text-anchor="middle" class="text-tiny">Zod Validation</text>
  <text x="1050" y="844" text-anchor="middle" class="text-tiny">Input Components</text>
  
  <rect x="1160" y="785" width="160" height="70" class="component-box"/>
  <text x="1240" y="803" text-anchor="middle" class="text-component">Routing</text>
  <text x="1240" y="818" text-anchor="middle" class="text-tiny">React Router v6</text>
  <text x="1240" y="831" text-anchor="middle" class="text-tiny">SPA Navigation</text>
  <text x="1240" y="844" text-anchor="middle" class="text-tiny">Dynamic Routes</text>
  
  <!-- ==================== DATA FLOW ARROWS ==================== -->
  <!-- External to API -->
  <path d="M 190 205 L 190 230 L 370 230 L 370 295" class="data-flow"/>
  <path d="M 430 205 L 430 230 L 370 230" class="data-flow"/>
  <path d="M 670 205 L 670 230 L 370 230" class="data-flow"/>
  <path d="M 910 205 L 910 230 L 370 230" class="data-flow"/>
  <path d="M 1180 205 L 1180 230 L 1150 230 L 1150 295" class="data-flow"/>
  
  <!-- API to Processing -->
  <path d="M 370 375 L 370 400 L 270 400 L 270 465" class="arrow"/>
  <path d="M 820 375 L 820 400 L 620 400 L 620 465" class="arrow"/>
  <path d="M 1150 375 L 1150 400 L 620 400" class="arrow"/>
  
  <!-- Processing to Intelligence -->
  <path d="M 270 545 L 270 565 L 220 565 L 220 635" class="arrow"/>
  <path d="M 620 545 L 620 565 L 520 565 L 520 635" class="arrow"/>
  <path d="M 830 545 L 830 560 L 830 635" class="arrow"/>
  
  <!-- Intelligence to Frontend -->
  <path d="M 220 695 L 220 720 L 180 720 L 180 785" class="arrow"/>
  <path d="M 520 695 L 520 720 L 400 720 L 400 785" class="arrow"/>
  <path d="M 830 695 L 830 720 L 620 720 L 620 785" class="arrow"/>
  <path d="M 1160 695 L 1160 720 L 840 720 L 840 785" class="arrow"/>
  
  <!-- Legend -->
  <rect x="1200" y="240" width="180" height="140" fill="#f8fafc" stroke="#cbd5e1" stroke-width="2" rx="8"/>
  <text x="1290" y="265" text-anchor="middle" style="font-family: 'Segoe UI', Arial, sans-serif; font-size: 16px; font-weight: bold; fill: #1e293b;">Legend</text>
  
  <line x1="1220" y1="280" x2="1260" y2="280" class="arrow"/>
  <text x="1270" y="285" style="font-family: 'Segoe UI', Arial, sans-serif; font-size: 11px; fill: #475569;">Process Flow</text>
  
  <line x1="1220" y1="300" x2="1260" y2="300" class="data-flow"/>
  <text x="1270" y="305" style="font-family: 'Segoe UI', Arial, sans-serif; font-size: 11px; fill: #475569;">Data Flow</text>
  
  <rect x="1220" y="315" width="40" height="20" class="layer-box"/>
  <text x="1270" y="330" style="font-family: 'Segoe UI', Arial, sans-serif; font-size: 11px; fill: #475569;">Layer</text>
  
  <rect x="1220" y="342" width="40" height="18" class="component-box"/>
  <text x="1270" y="355" style="font-family: 'Segoe UI', Arial, sans-serif; font-size: 11px; fill: #475569;">Component</text>
  
  <rect x="1220" y="367" width="40" height="18" class="integration-box"/>
  <text x="1270" y="380" style="font-family: 'Segoe UI', Arial, sans-serif; font-size: 11px; fill: #475569;">Integration</text>
  
  <!-- Footer -->
  <rect x="0" y="870" width="1400" height="30" fill="#f1f5f9"/>
  <text x="700" y="890" text-anchor="middle" style="font-family: 'Segoe UI', Arial, sans-serif; font-size: 13px; fill: #475569; font-weight: 600;">
    Tech Stack: React 18 • TypeScript • Vite • Express • Node.js • Tailwind CSS • shadcn/ui • Chart.js • Recharts • TanStack Query
  </text>
</svg>
